<svg width="688" height="491" viewBox="0 0 688 491" fill="none" xmlns="http://www.w3.org/2000/svg">
<path d="M509.551 490.224L508.855 489.963C508.702 489.906 493.496 484.083 486.373 470.881C479.249 457.677 482.737 441.781 482.773 441.622L482.937 440.898L483.632 441.158C483.785 441.216 498.991 447.039 506.115 460.241C513.239 473.445 509.751 489.341 509.714 489.5L509.551 490.224ZM487.513 470.266C493.536 481.429 505.552 487.151 508.597 488.457C509.176 485.196 510.991 472.008 504.974 460.856C498.958 449.705 486.936 443.974 483.89 442.665C483.311 445.928 481.496 459.115 487.513 470.266Z" fill="#55A1E3"/>
<path d="M491.817 466.249C504.618 473.947 509.549 489.236 509.549 489.236C509.549 489.236 493.723 492.045 480.922 484.348C468.12 476.65 463.189 461.361 463.189 461.361C463.189 461.361 479.015 458.552 491.817 466.249Z" fill="#55A1E3"/>
<path d="M688 218.907H302.197V0H688V218.907Z" fill="#EFF7FE"/>
<path d="M688 218.907H302.197V0H688V218.907ZM306.825 214.283H683.372V4.6248H306.825V214.283Z" fill="#E5E5E5"/>
<path d="M619.292 70.7871H370.905V76.9941H619.292V70.7871Z" fill="#3F3D56"/>
<path d="M619.292 106.244H370.905V112.451H619.292V106.244Z" fill="#3F3D56"/>
<path d="M619.292 141.701H370.905V147.908H619.292V141.701Z" fill="#3F3D56"/>
<path d="M412.799 61.5579H402.001V86.2235H412.799V61.5579Z" fill="#55A1E3"/>
<path d="M489.154 97.2271H478.356V121.893H489.154V97.2271Z" fill="#55A1E3"/>
<path d="M584.79 132.684H573.993V157.35H584.79V132.684Z" fill="#55A1E3"/>
<path d="M454.242 251.925H304.576V258.132H454.242V251.925Z" fill="#CBCBCB"/>
<path d="M454.242 272.737H304.576V278.944H454.242V272.737Z" fill="#CBCBCB"/>
<path d="M377.887 293.549H304.576V299.756H377.887V293.549Z" fill="#CBCBCB"/>
<path d="M448.277 339.152H402.772V293.675H448.277V339.152Z" fill="white"/>
<path d="M448.277 339.152H402.772V293.675H448.277V339.152ZM404.314 337.611H446.734V295.217H404.314V337.611Z" fill="#CBCBCB"/>
<path d="M685.826 339.152H640.321V293.675H685.826V339.152Z" fill="white"/>
<path d="M685.826 339.152H640.321V293.675H685.826V339.152ZM641.864 337.611H684.283V295.217H641.864V337.611Z" fill="#E5E5E5"/>
<path d="M423.498 323.116L418.042 316.101L421.214 313.635L423.798 316.955L432.527 307.747L435.447 310.51L423.498 323.116Z" fill="#55A1E3"/>
<path d="M685.621 251.925H535.955V258.132H685.621V251.925Z" fill="#E5E5E5"/>
<path d="M685.621 272.737H535.955V278.944H685.621V272.737Z" fill="#E5E5E5"/>
<path d="M609.266 293.549H535.955V299.756H609.266V293.549Z" fill="#E5E5E5"/>
<path d="M143.879 315.965C144.605 315.4 145.211 314.695 145.663 313.893C146.115 313.092 146.403 312.208 146.51 311.294C146.618 310.381 146.543 309.455 146.29 308.57C146.037 307.685 145.611 306.859 145.036 306.14C144.795 305.839 144.531 305.558 144.245 305.3L142.171 214.061L127.203 216.732L133.963 306.051C132.989 307.284 132.46 308.811 132.462 310.383C132.465 311.955 133 313.479 133.979 314.709C135.132 316.179 136.817 317.135 138.671 317.37C140.524 317.605 142.396 317.1 143.879 315.965Z" fill="#FFB7B7"/>
<path d="M139.746 197.222C139.565 197.178 139.383 197.139 139.197 197.104C137.737 196.83 136.235 196.864 134.788 197.204C133.341 197.543 131.982 198.181 130.796 199.076C129.61 199.971 128.624 201.104 127.901 202.401C127.178 203.699 126.734 205.133 126.598 206.612L126.181 211.135L127.816 259.939L143.745 259.851L147.115 219.047L147.878 208.349C148.057 205.833 147.339 203.334 145.851 201.297C144.362 199.26 142.199 197.817 139.746 197.222Z" fill="#CBCBCB"/>
<path d="M203.802 481.662L212.629 481.661L216.827 447.64H203.801L203.802 481.662Z" fill="#FFB7B7"/>
<path d="M201.551 478.782L218.932 478.781H218.933C221.87 478.781 224.688 479.948 226.765 482.023C228.842 484.099 230.009 486.915 230.009 489.851V490.21L201.552 490.211L201.551 478.782Z" fill="#2F2E41"/>
<path d="M67.4834 471.338L75.4714 475.088L93.7449 446.079L81.9546 440.545L67.4834 471.338Z" fill="#FFB7B7"/>
<path d="M66.6703 467.776L82.4025 475.16L82.4031 475.16C85.0619 476.409 87.1157 478.661 88.1127 481.423C89.1097 484.184 88.9683 487.229 87.7196 489.886L87.5666 490.211L61.8086 478.121L66.6703 467.776Z" fill="#2F2E41"/>
<path d="M160.682 179.577C166.144 169.591 162.472 157.069 152.479 151.61C142.487 146.151 129.958 149.822 124.496 159.808C119.034 169.794 122.706 182.315 132.698 187.774C142.691 193.233 155.219 189.563 160.682 179.577Z" fill="#FFB8B8"/>
<path d="M148.548 199.613L129.795 194.101L117.22 225.851L140.605 274.138L141.047 282.737C141.047 282.737 124.595 302.883 123.176 332.347L116.999 349.325L109.718 365.42L65.7388 455.358L83.8332 466.765L163.727 334.06L202.978 471.216L219.439 472.138L204.091 298.727L187.11 264.508L179.594 247.537C179.594 247.537 188.119 228.948 171.615 220.238L148.548 199.613Z" fill="#55A1E3"/>
<path d="M164.561 147.068C159.463 142.873 151.187 143.272 145.471 146.982C142.063 145.005 138.113 144.163 134.195 144.579C130.276 144.994 126.591 146.644 123.673 149.291C117.975 154.692 116.484 164.016 119.523 171.274C120.795 175.027 121.127 179.034 120.489 182.944C119.851 186.855 118.263 190.549 115.865 193.704C121.392 194.026 126.918 194.348 132.458 194.441C133.743 193.63 134.93 192.672 135.996 191.589C138.2 193.96 140.419 195.178 140.861 195.104C146.785 194.357 152.777 194.337 158.706 195.043C155.894 186.106 153.081 177.169 149.631 169.256C155.441 172.392 163.486 170.41 167.171 164.933C170.856 159.457 169.659 151.263 164.561 147.068Z" fill="#2F2E41"/>
<path d="M187.315 316.516C187.888 315.795 188.311 314.968 188.561 314.083C188.812 313.197 188.884 312.271 188.773 311.358C188.663 310.444 188.372 309.562 187.918 308.761C187.464 307.961 186.856 307.258 186.128 306.695C185.823 306.459 185.5 306.247 185.161 306.064L161.678 217.87L147.758 223.984L175.345 309.21C174.687 310.638 174.532 312.246 174.905 313.773C175.277 315.3 176.156 316.656 177.397 317.622C178.863 318.779 180.726 319.312 182.583 319.105C184.44 318.898 186.14 317.968 187.315 316.516Z" fill="#FFB7B7"/>
<path d="M155.36 202.073C155.173 202.073 154.987 202.078 154.798 202.088C153.314 202.165 151.862 202.551 150.536 203.221C149.21 203.891 148.038 204.83 147.096 205.979C146.154 207.127 145.462 208.46 145.065 209.891C144.667 211.322 144.574 212.821 144.789 214.29L145.448 218.784L158.52 265.836L173.981 262.007L167.657 221.554L165.881 210.977C165.463 208.489 164.178 206.23 162.251 204.6C160.325 202.97 157.883 202.075 155.36 202.073Z" fill="#CBCBCB"/>
<path d="M294.622 491H0.771263C0.566711 491 0.370537 490.919 0.225897 490.774C0.0812572 490.63 0 490.434 0 490.229C0 490.025 0.0812572 489.829 0.225897 489.684C0.370537 489.54 0.566711 489.458 0.771263 489.458H294.622C294.827 489.458 295.023 489.54 295.168 489.684C295.312 489.829 295.394 490.025 295.394 490.229C295.394 490.434 295.312 490.63 295.168 490.774C295.023 490.919 294.827 491 294.622 491Z" fill="#55A1E3"/>
<path d="M552.224 491H438.077C437.873 491 437.677 490.919 437.532 490.774C437.387 490.63 437.306 490.434 437.306 490.229C437.306 490.025 437.387 489.829 437.532 489.684C437.677 489.54 437.873 489.458 438.077 489.458H552.224C552.429 489.458 552.625 489.54 552.77 489.684C552.914 489.829 552.996 490.025 552.996 490.229C552.996 490.434 552.914 490.63 552.77 490.774C552.625 490.919 552.429 491 552.224 491Z" fill="#55A1E3"/>
</svg>
