<svg width="632" height="576" viewBox="0 0 632 576" fill="none" xmlns="http://www.w3.org/2000/svg">
<path d="M280.692 139.078H0.119629V318.59H280.692V139.078Z" fill="#F2F2F2"/>
<path d="M272.669 161.593H8.14282V307.97H272.669V161.593Z" fill="white"/>
<path d="M280.572 138.919H0V150.827H280.572V138.919Z" fill="#55A1E3"/>
<path d="M8.85791 147.214C10.078 147.214 11.0671 146.226 11.0671 145.007C11.0671 143.788 10.078 142.8 8.85791 142.8C7.63779 142.8 6.64868 143.788 6.64868 145.007C6.64868 146.226 7.63779 147.214 8.85791 147.214Z" fill="white"/>
<path d="M17.2434 147.214C18.4635 147.214 19.4526 146.226 19.4526 145.007C19.4526 143.788 18.4635 142.8 17.2434 142.8C16.0233 142.8 15.0342 143.788 15.0342 145.007C15.0342 146.226 16.0233 147.214 17.2434 147.214Z" fill="white"/>
<path d="M25.6291 147.214C26.8493 147.214 27.8384 146.226 27.8384 145.007C27.8384 143.788 26.8493 142.8 25.6291 142.8C24.409 142.8 23.4199 143.788 23.4199 145.007C23.4199 146.226 24.409 147.214 25.6291 147.214Z" fill="white"/>
<path d="M100.149 176.781H32.1785V292.782H100.149V176.781Z" fill="#F2F2F2"/>
<path d="M168.525 176.781H111.882V208.712H168.525V176.781Z" fill="#55A1E3"/>
<path d="M168.525 217.604H111.882V251.959H168.525V217.604Z" fill="#F2F2F2"/>
<path d="M168.525 260.851H111.882V292.782H168.525V260.851Z" fill="#F2F2F2"/>
<path d="M248.633 176.781H180.662V227.333H248.633V176.781Z" fill="#F2F2F2"/>
<path d="M248.633 242.229H180.662V292.782H248.633V242.229Z" fill="#F2F2F2"/>
<path d="M632 139.078H351.428V318.59H632V139.078Z" fill="#F2F2F2"/>
<path d="M623.977 161.593H359.451V307.97H623.977V161.593Z" fill="white"/>
<path d="M631.88 138.919H351.308V150.827H631.88V138.919Z" fill="#55A1E3"/>
<path d="M360.166 147.214C361.386 147.214 362.375 146.226 362.375 145.007C362.375 143.788 361.386 142.8 360.166 142.8C358.946 142.8 357.957 143.788 357.957 145.007C357.957 146.226 358.946 147.214 360.166 147.214Z" fill="white"/>
<path d="M368.552 147.214C369.772 147.214 370.761 146.226 370.761 145.007C370.761 143.788 369.772 142.8 368.552 142.8C367.332 142.8 366.343 143.788 366.343 145.007C366.343 146.226 367.332 147.214 368.552 147.214Z" fill="white"/>
<path d="M376.938 147.214C378.158 147.214 379.147 146.226 379.147 145.007C379.147 143.788 378.158 142.8 376.938 142.8C375.717 142.8 374.728 143.788 374.728 145.007C374.728 146.226 375.717 147.214 376.938 147.214Z" fill="white"/>
<path d="M599.88 176.781H531.909V292.782H599.88V176.781Z" fill="#F2F2F2"/>
<path d="M520.647 176.779H383.548V208.71H520.647V176.779Z" fill="#55A1E3"/>
<path d="M520.647 217.602H383.548V251.957H520.647V217.602Z" fill="#F2F2F2"/>
<path d="M520.647 260.849H383.548V292.78H520.647V260.849Z" fill="#F2F2F2"/>
<path d="M314.411 0H312.843V85.5989H314.411V0Z" fill="#CCCCCC"/>
<path d="M471.245 138.87H469.676V86.3826H157.577V138.87H156.008V84.8159H471.245V138.87Z" fill="#CCCCCC"/>
<path d="M325.166 239.3L323.985 233.401C323.985 233.401 306.616 227.503 304.673 239.3H325.166Z" fill="#E6E6E6"/>
<path d="M291.832 564.076L280.445 564.075L275.028 520.198L291.834 520.199L291.832 564.076Z" fill="#FFB8B8"/>
<path d="M294.736 575.102L258.02 575.101V574.637C258.02 570.851 259.526 567.219 262.206 564.542C264.886 561.865 268.521 560.361 272.311 560.361H272.312L294.737 560.362L294.736 575.102Z" fill="#2F2E41"/>
<path d="M330.979 564.076L342.366 564.075L347.783 520.198L330.977 520.199L330.979 564.076Z" fill="#FFB8B8"/>
<path d="M328.074 560.362L350.499 560.361C354.289 560.361 357.925 561.865 360.605 564.542C363.285 567.22 364.791 570.851 364.791 574.637V575.101L328.075 575.102L328.074 560.362Z" fill="#2F2E41"/>
<path d="M341.698 264.073L354.687 262.893L362.953 301.823L361.772 337.213L348.783 384.401L331.071 373.784L340.517 325.416L341.698 264.073Z" fill="#55A1E3"/>
<path d="M349.919 380.272L347.012 405.045L350.555 462.849V548.989L328.118 547.787L323.395 458.13L310.405 416.842L300.958 464.029L295.054 552.505L272.027 550.661V463.718L271.437 400.326L279.702 375.553L349.919 380.272Z" fill="#2F2E41"/>
<path d="M301.549 240.479C301.549 240.479 309.815 228.683 325.166 236.94L332.251 246.378L354.687 262.893L349.964 318.338L355.868 387.94L272.027 386.76L286.198 317.159V242.839L301.549 240.479Z" fill="#55A1E3"/>
<path opacity="0.25" d="M347.012 282.474L353.782 363.35L345.24 319.518L347.012 282.474Z" fill="black"/>
<path d="M285.423 402.979C286.241 402.004 286.834 400.861 287.161 399.632C287.489 398.403 287.543 397.117 287.319 395.865C287.095 394.613 286.599 393.425 285.866 392.385C285.133 391.345 284.181 390.478 283.076 389.846L285.6 370.124L273.978 365.668L270.804 393.569C269.864 395.493 269.662 397.696 270.238 399.758C270.814 401.821 272.128 403.601 273.93 404.761C275.732 405.921 277.897 406.38 280.016 406.052C282.134 405.723 284.058 404.63 285.423 402.979Z" fill="#FFB8B8"/>
<path d="M270.846 383.221H289.74V374.963H270.846V383.221Z" fill="#E6E6E6"/>
<path d="M298.597 252.866L286.198 242.839C286.198 242.839 277.341 242.249 276.16 255.225C274.979 268.202 273.543 323.647 273.543 323.647L269.075 379.092L293.873 380.272L298.597 320.261V252.866Z" fill="#55A1E3"/>
<path d="M335.497 214.527C341.779 203.047 337.555 188.654 326.064 182.378C314.573 176.103 300.165 180.322 293.883 191.802C287.602 203.281 291.825 217.675 303.316 223.95C314.807 230.226 329.215 226.007 335.497 214.527Z" fill="#FFB8B8"/>
<path d="M312.919 224.061C318.72 225.452 324.832 224.64 330.068 221.782C335.303 218.924 339.289 214.224 341.25 208.595C343.212 202.966 343.009 196.81 340.681 191.321C338.354 185.833 334.068 181.405 328.655 178.897C324.488 177.039 319.929 176.222 315.375 176.516C308.283 176.889 301.39 179.507 294.291 179.314L293.262 180.967L289.384 180.027L288.553 183.103L287.532 183.068C285.702 186.464 288.646 191.327 292.507 191.286C294.036 191.27 295.481 190.634 296.976 190.314C298.471 189.994 300.231 190.074 301.262 191.201C302.601 192.667 302.018 194.954 301.739 196.919C301.46 198.884 302.157 201.531 304.143 201.595C305.157 201.628 306.122 200.901 307.119 201.092C308.279 201.315 308.866 202.715 308.697 203.884C308.409 205.031 307.94 206.124 307.308 207.123C304.429 212.863 306.86 220.672 312.489 223.769" fill="#2F2E41"/>
</svg>
