<svg width="64" height="64" viewBox="0 0 70 65" fill="none" xmlns="http://www.w3.org/2000/svg">
<path d="M14.3876 0.912517C13.9638 -0.304172 12.2413 -0.304172 11.8038 0.912517L4.07989 24.8089H22.1252C22.1115 24.8089 14.3876 0.912517 14.3876 0.912517ZM0.129067 36.8391C-0.22637 37.9327 0.170079 39.1494 1.09969 39.8466L34.9893 65.0006L4.06622 24.8089L0.129067 36.8391ZM22.1115 24.8089L35.003 65.0006L47.8944 24.8089H22.1115ZM69.8768 36.8391L65.9397 24.8089L35.003 65.0006L68.8926 39.8466C69.8358 39.1494 70.2186 37.9327 69.8768 36.8391ZM58.2021 0.912517C57.7783 -0.304172 56.0558 -0.304172 55.6183 0.912517L47.8807 24.8089H65.926L58.2021 0.912517Z" fill="#EFF7FE"/>
</svg>
