<svg width="64" height="64" viewBox="0 0 50 75" fill="none" xmlns="http://www.w3.org/2000/svg">
<path d="M37.5018 24.9963C40.8166 24.9963 43.9955 23.6796 46.3394 21.3357C48.6832 18.9918 50 15.8129 50 12.4982C50 9.18345 48.6832 6.00449 46.3394 3.66063C43.9955 1.31677 40.8166 0 37.5018 0L12.5055 0C9.19271 0 6.01562 1.316 3.67313 3.65848C1.33064 6.00097 0.0146468 9.17807 0.0146468 12.4908C0.0146468 15.8036 1.33064 18.9807 3.67313 21.3232C6.01562 23.6657 9.19271 24.9817 12.5055 24.9817C9.19077 24.9817 6.01182 26.2985 3.66795 28.6423C1.32409 30.9862 0.00732523 34.1651 0.00732523 37.4799C0.00732523 40.7946 1.32409 43.9735 3.66795 46.3174C6.01182 48.6613 9.19077 49.978 12.5055 49.978C10.0336 49.9766 7.61677 50.7082 5.56065 52.0803C3.50453 53.4524 1.90147 55.4034 0.954176 57.6866C0.00688135 59.9698 -0.242096 62.4826 0.238728 64.9073C0.719553 67.332 1.90858 69.5596 3.65546 71.3086C5.40233 73.0575 7.6286 74.2491 10.0527 74.7328C12.4768 75.2165 14.99 74.9704 17.2743 74.0258C19.5585 73.0812 21.5114 71.4804 22.886 69.4259C24.2605 67.3714 24.9949 64.9554 24.9963 62.4835V24.9963H37.5018ZM37.5018 24.9963C35.0314 24.9963 32.6164 25.7289 30.5623 27.1014C28.5082 28.4739 26.9072 30.4247 25.9618 32.7071C25.0164 34.9895 24.769 37.501 25.251 39.924C25.733 42.347 26.9226 44.5727 28.6695 46.3195C30.4163 48.0664 32.642 49.2561 35.065 49.738C37.488 50.22 39.9995 49.9726 42.2819 49.0272C44.5643 48.0818 46.5151 46.4808 47.8876 44.4267C49.2601 42.3726 49.9927 39.9576 49.9927 37.4872C49.9923 34.1745 48.6762 30.9977 46.3338 28.6552C43.9914 26.3128 40.8145 24.9967 37.5018 24.9963Z" fill="#EFF7FE"/>
</svg>
